<svg width="240" height="309" viewBox="0 0 240 309" fill="none" xmlns="http://www.w3.org/2000/svg">
<mask id="mask0_1_184" style="mask-type:luminance" maskUnits="userSpaceOnUse" x="0" y="0" width="240" height="309">
<path d="M240 0H0V309H240V0Z" fill="white"/>
</mask>
<g mask="url(#mask0_1_184)">
<path d="M-66.958 27.9044H173.042V336.904H-66.958V27.9044ZM-66.958 336.904H173.042V27.9044H-66.958V336.904ZM130.76 267.75C127.423 267.75 124.72 265.048 124.72 261.714C124.72 258.381 127.423 255.679 130.76 255.679C134.097 255.679 136.8 258.381 136.8 261.714C136.8 265.048 134.097 267.75 130.76 267.75ZM130.76 258.262C128.852 258.263 127.306 259.809 127.306 261.715C127.306 263.622 128.853 265.167 130.761 265.167C132.669 265.167 134.216 263.621 134.216 261.714C134.216 260.799 133.852 259.922 133.204 259.274C132.555 258.626 131.677 258.262 130.76 258.262Z" fill="white"/>
<path d="M-60.5384 -45.8403H179.462V263.16H-60.5384V-45.8403ZM-60.5384 263.16H179.462V-45.8403H-60.5384V263.16ZM120.434 228.091H119.296V223.545H114.744V222.402H119.296V217.856H120.434V222.402H124.986V223.545H120.434V228.091Z" fill="white"/>
<path d="M-41.3024 -19.2125H198.698V289.788H-41.3024V-19.2125ZM-41.3024 289.788H198.698V-19.2125H-41.3024V289.788ZM120.375 233.081L113.386 229.049L109.33 236.067L107.244 234.868L111.3 227.851L104.369 223.851L105.532 221.832L112.463 225.83L116.506 218.838L118.592 220.037L114.549 227.037L121.538 231.069L120.375 233.081Z" fill="white"/>
<path d="M-19.3098 -60.4012H220.69V248.599H-19.3098V-60.4012ZM-19.3098 248.599H220.69V-60.4012H-19.3098V248.599ZM124.644 224.321L123.448 225.005L121.377 221.425L117.791 223.493L117.1 222.302L120.688 220.234L118.616 216.645L119.812 215.953L121.883 219.542L125.469 217.474L126.16 218.664L122.574 220.732L124.644 224.321Z" fill="white"/>
<path d="M-2.88593 -92.5529H237.114V216.447H-2.88593V-92.5529ZM-2.88593 216.447H237.114V-92.5529H-2.88593V216.447ZM116.309 210.058C114.085 210.058 112.282 208.257 112.282 206.034C112.282 203.813 114.085 202.011 116.309 202.011C118.533 202.011 120.336 203.813 120.336 206.034C120.336 208.257 118.533 210.058 116.309 210.058ZM116.309 203.734C115.036 203.734 114.006 204.765 114.006 206.035C114.007 207.306 115.038 208.337 116.31 208.337C117.582 208.337 118.613 207.306 118.613 206.034C118.613 205.425 118.37 204.839 117.938 204.407C117.505 203.976 116.92 203.734 116.309 203.734Z" fill="white"/>
<path d="M18.8115 17.6887H258.812V326.689H18.8115V17.6887ZM18.8115 326.689H258.812V17.6887H18.8115V326.689ZM124.315 298.573C120.311 298.573 117.067 295.331 117.067 291.331C117.067 287.332 120.311 284.089 124.315 284.089C128.318 284.089 131.563 287.332 131.563 291.331C131.563 295.331 128.318 298.573 124.315 298.573ZM124.315 287.187C122.637 287.187 121.125 288.196 120.482 289.745C119.84 291.294 120.195 293.076 121.381 294.261C122.567 295.448 124.351 295.802 125.901 295.16C127.451 294.519 128.462 293.008 128.462 291.331C128.46 289.044 126.605 287.189 124.315 287.187Z" fill="white"/>
<path d="M18.3303 3.74399H258.33V312.744H18.3303V3.74399ZM18.3303 312.744H258.33V3.74399H18.3303V312.744ZM123.834 284.628C119.83 284.628 116.585 281.386 116.585 277.386C116.585 273.388 119.83 270.144 123.834 270.144C127.837 270.144 131.082 273.388 131.082 277.386C131.082 281.386 127.837 284.628 123.834 284.628ZM123.834 273.243C122.156 273.242 120.644 274.252 120.001 275.801C119.359 277.349 119.713 279.131 120.9 280.317C122.086 281.503 123.87 281.857 125.42 281.216C126.97 280.574 127.98 279.063 127.98 277.386C127.979 275.099 126.123 273.244 123.834 273.243Z" fill="white"/>
<path d="M359.868 46.127L433.34 274.494L138.96 368.951L65.4877 140.583L359.868 46.127ZM65.4877 140.583L138.96 368.951L433.34 274.494L359.868 46.127L65.4877 140.583ZM116.273 201.301L120.219 193.616L112.529 189.663L113.517 187.74L121.208 191.691L125.154 184.006L127.079 184.994L123.133 192.681L130.823 196.633L129.835 198.556L122.145 194.603L118.198 202.29L116.273 201.301Z" fill="white"/>
<path d="M177.227 135.451L166.876 119.823Z" fill="white" fill-opacity="0.5"/>
<path d="M177.227 135.451L166.876 119.823" stroke="white" stroke-width="3.96488"/>
<path d="M0.52594 1.77924H240.526V310.779H0.52594V1.77924ZM0.52594 310.779H240.526V1.77924H0.52594V310.779ZM147.908 79.0775C161.197 96.5714 167.348 108.666 167.237 109.656C165.782 120.381 163.719 131.014 161.058 141.505C155.674 162.789 147.542 186.077 147.542 186.077C147.542 186.077 134.781 170.426 131.801 168.398L133.268 165.107C138.209 171.584 146.664 180.573 146.664 180.573C146.664 180.573 153.269 161.453 157.831 142.624C161.832 126.12 164.247 110.766 164.247 110.766C159.427 101.144 153.664 92.0217 147.044 83.5355L147.908 79.0775Z" fill="white"/>
<path d="M0.524933 1.77924H240.525V310.779H0.524933V1.77924ZM0.524933 310.779H240.525V1.77924H0.524933V310.779ZM89.0398 79.0775C75.7512 96.5714 69.5998 108.666 69.7102 109.656C71.1655 120.381 73.228 131.014 75.889 141.505C81.2729 162.789 89.4055 186.077 89.4055 186.077C89.4055 186.077 102.972 169.621 105.952 167.593L104.487 164.302C99.5443 170.779 90.2833 180.573 90.2833 180.573C90.2833 180.573 83.6785 161.453 79.1161 142.624C75.1158 126.12 72.7005 110.766 72.7005 110.766C72.7005 110.766 77.9426 98.7441 89.0986 84.3643L89.0398 79.0775Z" fill="white"/>
<path d="M0.52594 1.77924H240.526V310.779H0.52594V1.77924ZM0.52594 310.779H240.526V1.77924H0.52594V310.779ZM125.358 182.053C127.741 182.093 129.788 180.373 130.161 178.021H107.64C107.64 178.021 107.817 182.053 112.472 182.053H125.358Z" fill="white"/>
<path d="M120.536 9.11799C125.084 10.9285 148.713 37.3223 148.713 70.2018C148.713 119.159 137.175 160.448 130.967 174.802C130.841 174.802 106.962 174.827 106.837 174.802C101.091 160.448 88.3134 119.119 88.3134 70.2018C88.3134 37.4993 112.673 11.0251 117.274 9.12604C117.449 9.05361 118.185 8.21674 118.917 8.21674C119.649 8.21674 120.374 9.05361 120.536 9.11799Z" stroke="white" stroke-width="4"/>
<path d="M213.544 86.4108L220.508 79.6247L227.058 71.8788" fill="white"/>
<path d="M213.544 86.4108L220.508 79.6247L227.058 71.8788" stroke="white" stroke-width="4.07236"/>
<path d="M63.8252 25.9506C63.8252 25.9506 71.2078 29.1686 73.2577 30.4528C75.7047 31.9859 82.4105 36.444 82.4105 36.444" stroke="white" stroke-width="4.0089"/>
<path d="M81.294 35.8408C84.6942 37.9732 86.6094 39.5665 90.2118 42.1817M176.063 133.602C188.514 152.601 193.958 167.077 189.118 171.6C180.576 179.582 143.249 153.55 105.743 113.453C68.2365 73.3553 44.7568 34.3843 53.2985 26.4018C55.5213 24.3257 59.694 24.551 65.3122 26.7317" stroke="white" stroke-width="4"/>
<path d="M111.334 113.428C114.434 113.428 116.946 115.938 116.946 119.035C116.946 122.133 114.434 124.643 111.334 124.643C108.234 124.643 105.721 122.133 105.721 119.035C105.721 115.938 108.234 113.428 111.334 113.428Z" stroke="white" stroke-width="4"/>
<path d="M111.183 114.2C113.835 114.2 115.989 116.352 115.989 119.002C115.989 121.652 113.835 123.803 111.183 123.803C108.531 123.803 106.378 121.652 106.378 119.002C106.378 116.352 108.531 114.2 111.183 114.2Z" fill="white"/>
<path d="M214.373 85.7757C197.02 101.853 167.94 121.721 133.314 140.181C72.484 172.601 17.5724 188.389 10.6647 175.45C5.31625 165.431 27.8915 142.739 67.6792 117.231M150.588 72.4018C193.923 53.6123 225.599 48.0278 230.944 58.0461C232.743 61.4097 231.112 66.3907 226.644 72.4903" stroke="white" stroke-width="4"/>
</g>
</svg>
